# xmcd
#
# Track frame offsets: 
#        150
#        23314
#        47546
#        87196
#        121855
#        142910
#        179964
#        204494
#        245184
#        275960
#
# Disc length: 3993 seconds
#
# Revision: 0
# Processed by: cddbd v1.5.1PL2 Copyright (c) Steve Scherf et al.
# Submitted via: ExactAudioCopy v0.95b3
#
DISCID=8d0f970a
DTITLE=Pickin', Stickin, and Blowin' - Grant Fullerton's Jamnation
DYEAR=1998
DGENRE=Blues
TTITLE0=Mojo Workin'
TTITLE1=The Letter
TTITLE2=The Joker
TTITLE3=Phone Booth
TTITLE4=Love The One You're With
TTITLE5=Walkin' The Dog
TTITLE6=I'm Good
TTITLE7=Runaway
TTITLE8=Will You Still Love Me Tomorrow
TTITLE9=Why Don't We Do It In The Road
EXTD=
EXTT0=
EXTT1=
EXTT2=
EXTT3=
EXTT4=
EXTT5=
EXTT6=
EXTT7=
EXTT8=
EXTT9=
PLAYORDER=
